<svg version="1.0" xmlns="http://www.w3.org/2000/svg"
 width="400.000000pt" height="400.000000pt" viewBox="0 0 400.000000 400.000000"
 preserveAspectRatio="xMidYMid meet">

<g transform="translate(0.000000,400.000000) scale(0.100000,-0.100000)"
fill="#000000" stroke="none">
<path d="M1665 2991 c-84 -24 -134 -52 -197 -110 -189 -173 -194 -477 -11
-660 192 -191 536 -190 729 3 116 116 158 269 119 434 -20 85 -45 130 -109
200 -62 66 -141 113 -232 136 -81 21 -222 20 -299 -3z m260 -215 c97 -45 141
-128 133 -251 -6 -94 -40 -155 -112 -200 -44 -26 -58 -30 -125 -30 -64 0 -83
4 -122 27 -101 59 -146 199 -104 319 48 136 198 197 330 135z"/>
<path d="M320 2530 l0 -450 130 0 130 0 0 175 0 175 185 0 185 0 0 -175 0
-175 135 0 135 0 -2 448 -3 447 -132 3 -133 3 0 -171 0 -170 -185 0 -185 0 0
170 0 170 -130 0 -130 0 0 -450z"/>
<path d="M650 1914 c-270 -53 -432 -276 -390 -539 28 -177 154 -314 339 -369
123 -36 319 -13 457 55 l64 32 0 188 0 189 -110 0 -110 0 0 -120 c0 -141 0
-140 -118 -148 -90 -6 -145 13 -201 69 -54 54 -75 121 -68 210 6 75 22 113 66
156 51 51 97 68 186 68 85 0 129 -16 191 -68 l29 -25 80 73 c80 73 80 73 61
94 -31 34 -116 86 -181 111 -45 16 -87 23 -165 25 -58 2 -116 1 -130 -1z"/>
<path d="M1280 1455 l0 -445 340 0 340 0 0 95 0 95 -212 2 -213 3 0 80 0 80
213 0 212 0 0 98 0 97 -215 0 -216 0 3 73 3 72 213 3 212 2 0 95 0 95 -340 0
-340 0 0 -445z"/>
<path d="M2120 1455 l0 -445 125 0 125 0 2 231 3 232 190 -231 190 -231 108 0
107 -1 0 445 0 445 -125 0 -125 0 0 -236 0 -236 -196 236 -195 236 -105 0
-104 0 0 -445z"/>
<path d="M3090 1800 l0 -100 125 0 125 0 0 -345 0 -345 125 0 125 0 0 345 0
345 125 0 125 0 0 100 0 100 -375 0 -375 0 0 -100z"/>
</g>
</svg>
