<svg version="1.0" xmlns="http://www.w3.org/2000/svg"
 width="732.000000pt" height="227.000000pt" viewBox="0 0 732.000000 227.000000"
 preserveAspectRatio="xMidYMid meet">

<g transform="translate(0.000000,227.000000) scale(0.100000,-0.100000)"
fill="#000000" stroke="none">
<path d="M885 2248 c-3 -13 -14 -66 -25 -118 -11 -52 -22 -105 -25 -117 l-5
-23 150 0 c147 0 150 0 155 23 15 65 55 247 55 251 0 3 -67 6 -150 6 -147 0
-150 0 -155 -22z"/>
<path d="M3355 2260 c-204 -31 -382 -199 -431 -406 -27 -114 -16 -234 34 -381
35 -102 42 -134 42 -200 0 -65 -5 -88 -29 -138 -33 -70 -113 -150 -186 -186
l-50 -24 -849 -5 -850 -5 -28 -135 c-15 -74 -28 -138 -28 -142 0 -5 396 -8
881 -8 965 0 937 -2 1058 60 181 91 310 254 361 455 35 142 23 282 -39 437
-58 146 -49 240 31 320 80 80 -112 72 2012 78 l1899 5 32 143 32 142 -1921 -1
c-1057 -1 -1943 -5 -1971 -9z"/>
<path d="M2162 2010 c-101 -15 -147 -67 -176 -202 l-17 -78 -49 0 c-51 0 -50
1 -64 -62 -6 -27 -5 -28 38 -28 25 0 47 -3 49 -7 3 -5 -24 -141 -59 -303 -35
-162 -63 -301 -64 -307 0 -9 17 -13 54 -13 43 0 56 4 60 18 3 9 33 147 66 307
34 159 64 293 66 297 3 5 32 8 64 8 l59 0 8 43 9 42 -58 3 c-65 3 -64 2 -47
83 15 70 45 99 102 99 l43 0 10 50 c8 39 8 50 -2 50 -7 0 -18 2 -26 4 -7 2
-37 0 -66 -4z"/>
<path d="M7033 1833 l-19 -88 -51 -3 -51 -3 -9 -49 -10 -50 50 0 c46 0 49 -1
44 -22 -4 -12 -29 -132 -58 -267 -68 -323 -63 -341 91 -341 l69 0 8 43 c5 23
7 43 4 44 -4 1 -23 4 -43 8 -63 10 -63 18 -8 277 27 128 52 239 55 246 3 7 25
12 59 12 30 0 57 3 59 8 3 4 8 26 12 50 l7 42 -57 0 c-65 0 -62 -12 -31 118
l14 62 -57 0 -58 0 -20 -87z"/>
<path d="M806 1863 c-3 -10 -69 -328 -146 -707 -77 -378 -143 -692 -146 -697
-3 -5 63 -9 150 -9 147 0 156 1 156 19 0 19 275 1356 286 1394 5 16 -6 17
-145 17 -134 0 -150 -2 -155 -17z"/>
<path d="M4517 1749 c-54 -13 -93 -35 -145 -82 -32 -30 -43 -36 -39 -22 3 11
9 37 13 58 l6 37 -53 0 -54 0 -104 -493 c-57 -270 -106 -498 -109 -504 -3 -10
12 -13 55 -13 l60 0 27 133 c15 72 32 154 38 181 l10 48 29 -35 c38 -47 84
-61 178 -55 57 4 90 12 130 32 143 73 251 269 251 455 0 88 -11 135 -43 181
-41 62 -162 100 -250 79z m122 -126 c41 -31 55 -70 53 -148 -2 -112 -49 -240
-116 -313 -48 -54 -152 -82 -215 -59 -50 18 -93 76 -98 134 -5 52 14 147 47
236 25 67 98 152 143 166 72 22 141 16 186 -16z"/>
<path d="M5260 1751 c-49 -10 -110 -44 -144 -80 -36 -38 -50 -40 -42 -6 3 14
9 36 12 50 6 24 5 25 -48 25 l-55 0 -102 -482 c-57 -266 -105 -493 -108 -506
-5 -22 -4 -23 53 -20 l58 3 38 175 c20 96 38 177 38 180 0 3 12 -10 27 -29 35
-44 78 -61 157 -61 101 0 168 30 246 109 196 198 216 550 36 625 -41 17 -123
25 -166 17z m105 -120 c81 -45 88 -206 15 -367 -38 -85 -94 -139 -165 -160
-69 -19 -113 -13 -156 23 -62 53 -73 125 -40 255 41 159 113 251 209 268 49 9
100 2 137 -19z"/>
<path d="M5962 1750 c-23 -5 -70 -24 -103 -41 -232 -124 -325 -510 -157 -653
50 -43 109 -59 200 -55 216 11 398 224 399 466 1 181 -75 273 -236 287 -33 3
-79 1 -103 -4z m146 -117 c65 -49 87 -119 71 -232 -18 -122 -101 -251 -186
-286 -21 -9 -64 -17 -96 -17 -63 -1 -93 14 -130 64 -81 108 4 396 137 465 74
38 158 41 204 6z"/>
<path d="M6728 1744 c-31 -10 -68 -34 -109 -72 l-62 -57 6 45 c3 25 9 54 13
63 5 15 -1 17 -50 17 -31 0 -56 -1 -56 -3 0 -2 -34 -162 -75 -356 -41 -193
-75 -354 -75 -357 0 -3 26 -4 57 -2 l56 3 48 224 c55 256 73 296 153 345 34
22 64 31 106 34 56 4 58 5 63 36 3 17 9 46 13 64 6 29 4 32 -17 31 -13 0 -45
-7 -71 -15z"/>
<path d="M1456 1731 c-27 -11 -71 -39 -97 -61 -51 -43 -54 -41 -40 23 l9 37
-54 0 c-47 0 -54 -3 -59 -22 -15 -63 -145 -681 -145 -689 0 -5 24 -9 54 -9 43
0 56 4 60 18 3 9 23 105 46 212 48 226 75 295 137 349 114 101 273 69 273 -54
0 -25 -22 -150 -50 -278 -27 -127 -50 -236 -50 -240 0 -4 26 -7 57 -5 l57 3
52 245 c73 341 70 410 -19 461 -57 32 -165 36 -231 10z"/>
<path d="M2465 1737 c-117 -39 -198 -110 -257 -223 -94 -179 -86 -372 18 -464
78 -68 221 -77 341 -20 210 98 326 404 227 597 -41 79 -106 115 -213 120 -45
2 -92 -3 -116 -10z m165 -106 c20 -11 44 -36 58 -62 46 -86 16 -270 -62 -372
-73 -96 -210 -137 -286 -85 -74 49 -97 146 -64 272 31 121 100 216 184 253 40
19 131 15 170 -6z"/>
<path d="M3550 1733 c0 -5 -25 -125 -56 -268 -69 -325 -70 -368 -13 -422 36
-33 73 -43 152 -43 85 0 151 26 217 86 l43 39 -7 -35 c-4 -19 -10 -43 -12 -52
-5 -16 2 -18 50 -18 31 0 56 1 56 3 0 2 34 162 75 356 41 193 75 354 75 357 0
3 -26 4 -57 2 l-57 -3 -47 -221 c-26 -122 -57 -241 -69 -265 -49 -97 -125
-150 -220 -152 -52 -2 -62 1 -89 27 -25 24 -31 38 -31 70 0 31 70 388 104 529
4 15 -4 17 -55 17 -32 0 -59 -3 -59 -7z"/>
<path d="M17 832 c-9 -49 -17 -114 -17 -145 l0 -57 215 0 c165 0 215 3 215 13
0 6 13 72 29 145 l28 132 -226 0 -227 0 -17 -88z"/>
<path d="M3570 590 c-47 -11 -80 -52 -80 -98 0 -52 22 -78 83 -97 97 -32 123
-66 75 -99 -48 -34 -133 -11 -140 37 -2 17 -10 23 -40 25 l-36 3 8 -37 c14
-61 39 -78 124 -82 109 -6 158 26 158 103 0 55 -17 73 -89 95 -36 11 -72 25
-80 31 -32 27 1 79 51 79 17 0 39 -11 58 -30 19 -20 40 -30 59 -30 31 0 34 6
19 44 -18 48 -96 74 -170 56z"/>
<path d="M4160 574 c0 -6 -55 -278 -65 -321 -5 -20 -1 -23 25 -23 22 0 31 5
35 23 3 12 20 91 38 175 l34 152 -34 0 c-18 0 -33 -3 -33 -6z"/>
<path d="M4298 555 c-5 -23 -2 -25 28 -25 19 0 34 4 34 9 0 5 3 16 6 25 5 13
-1 16 -29 16 -29 0 -35 -4 -39 -25z"/>
<path d="M4620 515 c-7 -36 -14 -65 -17 -65 -2 0 -11 7 -19 15 -10 9 -34 15
-63 15 -83 0 -131 -56 -131 -153 0 -63 21 -93 76 -103 28 -5 42 -2 65 15 24
18 29 19 29 6 0 -12 8 -15 32 -13 l31 3 34 150 c18 83 35 160 38 173 5 19 2
22 -29 22 -34 0 -34 0 -46 -65z m-44 -100 c29 -45 -1 -126 -54 -146 -20 -8
-29 -6 -49 12 -25 24 -29 52 -12 96 25 66 84 86 115 38z"/>
<path d="M4862 428 c-18 -84 -35 -163 -38 -176 -6 -20 -3 -22 30 -22 20 0 36
2 36 4 0 12 72 331 76 338 3 4 -12 8 -33 8 l-38 0 -33 -152z"/>
<path d="M6600 520 c-9 -33 -15 -40 -35 -40 -16 0 -25 -6 -25 -15 0 -8 9 -15
20 -15 24 0 24 -7 4 -104 -19 -93 -12 -106 52 -106 37 0 44 3 44 20 0 13 -7
20 -20 20 -24 0 -25 16 -8 106 11 61 13 64 40 64 33 0 39 25 7 33 -17 5 -19
10 -13 41 6 35 5 36 -25 36 -27 0 -31 -4 -41 -40z"/>
<path d="M3862 470 c-46 -28 -72 -76 -72 -132 0 -25 3 -54 6 -63 16 -41 118
-59 174 -30 64 33 95 120 66 188 -24 59 -109 77 -174 37z m114 -55 c33 -50
-12 -145 -69 -145 -40 0 -61 32 -53 82 13 80 86 118 122 63z"/>
<path d="M5118 472 c-26 -14 -35 -15 -31 -5 4 9 -4 13 -25 13 -29 0 -31 -3
-42 -57 -6 -32 -18 -86 -26 -121 -8 -35 -14 -65 -14 -68 0 -2 15 -4 33 -4 l34
0 13 73 c19 107 38 137 90 137 35 0 41 -23 25 -96 -8 -38 -18 -79 -20 -91 -5
-20 -1 -23 28 -23 l34 0 17 83 c22 112 21 142 -6 161 -30 21 -66 20 -110 -2z"/>
<path d="M5460 483 c-8 -3 -23 -12 -32 -21 -16 -14 -18 -13 -18 1 0 12 -9 17
-30 17 -23 0 -31 -5 -35 -22 -16 -72 -45 -213 -45 -221 0 -4 14 -7 32 -5 31 3
32 4 50 88 19 90 40 120 83 120 40 0 44 -18 24 -110 -10 -47 -19 -89 -19 -93
0 -5 15 -7 33 -5 31 3 32 5 49 78 24 109 23 146 -4 164 -22 16 -59 19 -88 9z"/>
<path d="M5724 476 c-69 -31 -102 -107 -81 -188 14 -52 113 -76 177 -43 69 35
102 168 53 216 -27 27 -105 35 -149 15z m102 -61 c14 -22 15 -31 4 -71 -29
-103 -141 -98 -127 7 11 79 87 119 123 64z"/>
<path d="M6310 484 c-24 -10 -60 -46 -60 -61 0 -18 56 -17 63 1 3 8 20 17 37
21 37 8 62 -9 58 -39 -2 -17 -15 -23 -72 -33 -81 -15 -113 -33 -122 -69 -16
-65 46 -101 122 -69 25 10 40 12 42 5 2 -5 16 -10 31 -10 25 0 27 4 44 84 22
106 21 129 -2 150 -20 18 -113 31 -141 20z m90 -143 c0 -4 -10 -23 -23 -42
-18 -27 -29 -34 -56 -34 -45 0 -62 26 -37 54 10 11 28 22 40 24 39 8 76 7 76
-2z"/>
<path d="M6804 471 c-66 -40 -96 -111 -74 -177 29 -88 176 -86 231 3 23 37 28
117 10 151 -24 44 -112 56 -167 23z m107 -47 c29 -35 1 -136 -42 -149 -34 -11
-68 3 -75 30 -9 36 4 93 27 116 23 23 72 25 90 3z"/>
<path d="M7085 478 c-3 -7 -15 -64 -28 -125 l-23 -113 32 0 c32 0 33 2 44 58
21 107 36 130 93 141 23 5 33 13 35 29 3 19 -1 22 -28 22 -20 0 -40 -9 -57
-26 l-26 -26 7 26 c6 23 3 26 -19 26 -14 0 -28 -6 -30 -12z"/>
<path d="M4258 354 l-26 -125 31 3 c31 3 31 4 54 108 29 137 29 140 -5 140
-28 0 -28 -1 -54 -126z"/>
<path d="M5960 458 c0 -23 15 -134 25 -195 5 -30 9 -33 43 -33 34 0 39 4 63
48 14 26 45 82 68 125 l42 77 -33 0 c-33 0 -35 -3 -78 -90 -48 -98 -60 -100
-60 -10 0 83 -7 100 -41 100 -23 0 -29 -4 -29 -22z"/>
</g>
</svg>
