<svg xmlns="http://www.w3.org/2000/svg" version="1.1" xmlns:xlink="http://www.w3.org/1999/xlink" xmlns:svgjs="http://svgjs.dev/svgjs" width="308.7612359841165" height="304.915625" viewBox="0 0 1000 1000"><g transform="matrix(1,0,0,1,-0.14221556886212738,-0.14221556886229791)"><svg viewBox="0 0 334 334" data-background-color="#ffffff" preserveAspectRatio="xMidYMid meet" height="1000" width="1000" xmlns="http://www.w3.org/2000/svg" xmlns:xlink="http://www.w3.org/1999/xlink"><g id="tight-bounds" transform="matrix(1,0,0,1,0.04749999999998522,0.04750000000001364)"><svg viewBox="0 0 333.90454557049503 333.90454557049503" height="333.90454557049503" width="333.90454557049503"><g><svg></svg></g><g><svg viewBox="0 0 333.90454557049503 333.90454557049503" height="333.90454557049503" width="333.90454557049503"><g><path d="M0 166.952c0-92.205 74.747-166.952 166.952-166.952 92.205 0 166.952 74.747 166.953 166.952 0 92.205-74.747 166.952-166.953 166.953-92.205 0-166.952-74.747-166.952-166.953zM166.952 316.63c82.665 0 149.677-67.013 149.678-149.678 0-82.665-67.013-149.677-149.678-149.677-82.665 0-149.677 67.013-149.677 149.677 0 82.665 67.013 149.677 149.677 149.678z" data-fill-palette-color="tertiary" fill="#4790fc" stroke="transparent"></path><ellipse rx="160.27418187383762" ry="160.27418187383762" cx="166.95227278524752" cy="166.95227278524752" fill="#4790fc" stroke="transparent" stroke-width="0" fill-opacity="1" data-fill-palette-color="tertiary"></ellipse></g><g transform="matrix(1,0,0,1,112.58744756373741,71.17305217166896)"><svg viewBox="0 0 108.72965044302019 191.55844122715712" height="191.55844122715712" width="108.72965044302019"><g><svg viewBox="0 0 108.72965044302019 191.55844122715712" height="191.55844122715712" width="108.72965044302019"><g><svg viewBox="0 0 108.72965044302019 191.55844122715712" height="191.55844122715712" width="108.72965044302019"><g><svg viewBox="0 0 108.72965044302019 191.55844122715712" height="191.55844122715712" width="108.72965044302019"><g id="textblocktransform"><svg viewBox="0 0 108.72965044302019 191.55844122715712" height="191.55844122715712" width="108.72965044302019" id="textblock"><g><svg viewBox="0 0 108.72965044302019 191.55844122715712" height="191.55844122715712" width="108.72965044302019"><g transform="matrix(1,0,0,1,0,0)"><svg width="108.72965044302019" viewBox="3.75 -35 20.149999618530273 35.5" height="191.55844122715712" data-palette-color="#ffffff"><path d="M13.35 0.5L13.35 0.5Q10.1 0.5 7.6-1.45 5.1-3.4 3.85-6.45L3.85-6.45Q3.75-6.75 3.75-6.95L3.75-6.95Q3.75-7.4 4.08-7.63 4.4-7.85 4.75-7.85L4.75-7.85Q5.15-7.85 5.35-7.68 5.55-7.5 5.7-7.2L5.7-7.2Q6.65-4.7 8.7-3.1 10.75-1.5 13.35-1.5L13.35-1.5Q15.95-1.5 17.82-2.55 19.7-3.6 20.75-5.5 21.8-7.4 21.8-9.95L21.8-9.95 21.8-34Q21.8-34.4 22.1-34.7 22.4-35 22.9-35L22.9-35Q23.35-35 23.63-34.7 23.9-34.4 23.9-34L23.9-34 23.9-9.95Q23.9-6.85 22.58-4.48 21.25-2.1 18.88-0.8 16.5 0.5 13.35 0.5Z" opacity="1" transform="matrix(1,0,0,1,0,0)" fill="#ffffff" class="wordmark-text-0" data-fill-palette-color="quaternary" id="text-0"></path></svg></g></svg></g></svg></g></svg></g><g></g></svg></g></svg></g></svg></g></svg></g><defs></defs></svg><rect width="333.90454557049503" height="333.90454557049503" fill="none" stroke="none" visibility="hidden"></rect></g></svg></g></svg>